:SAMPLES-PER-SECOND 30
:FULLY-SPECIFIED
:DEGREES
210
root  57.0772 32.8016 1.57759 -161.896 -76.6482 -176.014
RightUpLeg  -66.9745 -11.6551 11.4624
RightLeg  64.9323 -5.5386 -13.3615
RightFoot  -20.1917 -0.281814 -1.87424
RightToes  2.32829e-010 0 -3.6325e-017
Spine  68.9917 -6.07924 7.65575
Spine1  -3.39231 -1.04777 -5.48624
HEad  -55.2626 4.44959 -7.28312
LeftShoulder1  9.2838 -22.0753 -30.1379
LeftArm  -53.8691 -51.4294 -34.0788
LeftForeArm  12.4921 -74.2555 -46.6026
LeftHand  -0.244104 0.0205437 5.32207
RightShoulder  6.70672 15.3738 29.5192
RightArm  -34.2104 44.0228 21.4929
RightForeArm  -15.5135 74.4585 52.4857
RightHand  -0.0457663 -7.35036 0.31988
LeftUpLeg  -88.2033 32.3995 -46.5585
LeftLeg  26.0778 -15.244 -7.66383
LeftFoot  15.971 0.00010835 -0.405336
LeftToes  1.42787e-010 7.94111e-011 2.6399e-011
211
root  57.1309 32.8941 1.70921 -163.212 -76.1231 -174.976
RightUpLeg  -66.2611 -11.5195 11.4944
RightLeg  64.0361 -5.58035 -12.9093
RightFoot  -20.1652 -0.300752 -2.13171
RightToes  2.32829e-010 0 -3.6325e-017
Spine  68.3719 -6.04056 7.67995
Spine1  -3.09305 -1.11638 -5.14446
HEad  -54.6899 4.81418 -7.75892
LeftShoulder1  9.62323 -22.1484 -31.3694
LeftArm  -52.0081 -50.2628 -36.2203
LeftForeArm  15.6418 -74.9392 -49.4639
LeftHand  -0.244104 0.0205437 5.32207
RightShoulder  6.68004 15.2081 29.6963
RightArm  -34.1591 41.525 22.0518
RightForeArm  -8.7427 74.6784 53.0068
RightHand  -0.0633768 -7.13507 1.45674
LeftUpLeg  -88.0887 33.0345 -47.0212
LeftLeg  25.2397 -15.5539 -7.5408
LeftFoot  16.0616 0.0158093 -0.471493
LeftToes  1.42787e-010 7.94111e-011 2.6399e-011
212
root  57.1639 33.0036 1.81896 -164.656 -75.5136 -173.953
RightUpLeg  -65.533 -11.0714 11.3717
RightLeg  63.3994 -5.69403 -12.7797
RightFoot  -19.6176 -0.303643 -2.36224
RightToes  2.32829e-010 0 -3.6325e-017
Spine  67.6592 -5.91834 7.7063
Spine1  -3.0674 -1.05825 -4.89078
HEad  -54.0713 5.21822 -8.22281
LeftShoulder1  9.88081 -22.1017 -32.4484
LeftArm  -49.7555 -48.9064 -38.5811
LeftForeArm  18.6409 -75.3636 -51.2331
LeftHand  -0.244104 0.0205437 5.32207
RightShoulder  6.71363 15.0895 30.1131
RightArm  -34.1241 38.6814 22.8118
RightForeArm  -1.52425 75.1553 54.8303
RightHand  -0.0759037 -7.9066 1.53564
LeftUpLeg  -87.6765 33.7754 -46.7917
LeftLeg  24.589 -15.4458 -7.27449
LeftFoot  15.9877 0.165481 -1.08638
LeftToes  1.42787e-010 7.94111e-011 2.6399e-011
213
root  57.1608 33.1624 1.91343 -166.204 -74.9548 -173.249
RightUpLeg  -64.1929 -10.8463 11.1338
RightLeg  62.6921 -5.80886 -12.6181
RightFoot  -19.0633 -0.285741 -2.32281
RightToes  2.32829e-010 0 -3.6325e-017
Spine  66.8252 -5.80103 7.69974
Spine1  -2.59962 -1.06179 -4.49452
HEad  -53.7215 5.60026 -8.71081
LeftShoulder1  9.86785 -21.9343 -32.6532
LeftArm  -47.6914 -47.676 -41.3229
LeftForeArm  21.2151 -75.5451 -51.6459
LeftHand  -0.244104 0.0205437 5.32207
RightShoulder  6.74928 14.9897 30.5076
RightArm  -34.2076 36.1214 23.968
RightForeArm  6.24968 75.5449 56.0288
RightHand  -0.0668528 -9.42167 0.35876
LeftUpLeg  -86.3642 34.6208 -45.7295
LeftLeg  23.8157 -14.9006 -6.77252
LeftFoot  15.9588 0.165005 -1.0849
LeftToes  1.42787e-010 7.94111e-011 2.6399e-011
214
root  57.1048 33.3619 1.99597 -167.637 -74.5349 -173.172
RightUpLeg  -62.011 -11.0072 10.6578
RightLeg  61.737 -5.86328 -12.214
RightFoot  -19.049 -0.265559 -2.03064
RightToes  2.32829e-010 0 -3.6325e-017
Spine  65.8384 -5.80951 7.61802
Spine1  -1.55241 -1.28931 -3.94393
HEad  -53.5281 6.03747 -9.4094
LeftShoulder1  9.67773 -21.6132 -32.3996
LeftArm  -46.2898 -46.3862 -43.9916
LeftForeArm  22.9008 -75.6232 -51.6379
LeftHand  -0.244104 0.0205437 5.32207
RightShoulder  6.78926 14.9545 30.7978
RightArm  -33.9818 34.0555 25.5654
RightForeArm  7.22295 75.8109 57.8641
RightHand  -0.0232121 -9.28899 -0.776896
LeftUpLeg  -84.0199 35.5156 -44.0593
LeftLeg  22.8573 -14.0478 -6.09724
LeftFoot  16.061 -0.158574 0.243018
LeftToes  1.42787e-010 7.94111e-011 2.6399e-011
215
root  56.9953 33.5723 2.05942 -169.091 -74.0958 -173.511
RightUpLeg  -59.3417 -11.2122 9.9348
RightLeg  60.8803 -5.88615 -11.8226
RightFoot  -19.1373 -0.250874 -1.78169
RightToes  2.32829e-010 0 -3.6325e-017
Spine  64.8321 -5.82051 7.42965
Spine1  -0.722952 -1.57355 -3.34601
HEad  -52.8412 6.64154 -10.3512
LeftShoulder1  9.6545 -21.1992 -32.9594
LeftArm  -45.3439 -44.6444 -45.5361
LeftForeArm  24.4567 -75.8507 -52.7272
LeftHand  -0.244104 0.0205437 5.32207
RightShoulder  6.90681 15.0188 31.3088
RightArm  -33.3069 32.0553 26.8579
RightForeArm  7.47455 75.8498 58.1295
RightHand  -0.0295971 -9.63034 -0.620877
LeftUpLeg  -80.94 36.4965 -41.8147
LeftLeg  21.9919 -12.9052 -5.35593
LeftFoot  16.1961 -0.68927 2.40456
LeftToes  1.42787e-010 7.94111e-011 2.6399e-011
216
root  56.833 33.7927 2.09233 -171.121 -73.5609 -173.768
RightUpLeg  -56.1616 -11.4203 9.15491
RightLeg  60.2348 -5.8949 -11.5269
RightFoot  -19.0483 -0.240993 -1.66498
RightToes  2.32829e-010 0 -3.6325e-017
Spine  63.8661 -5.66583 7.29313
Spine1  -0.456065 -1.62609 -2.69478
HEad  -51.279 7.17699 -11.255
LeftShoulder1  10.0024 -20.985 -34.7041
LeftArm  -43.873 -42.5681 -45.6804
LeftForeArm  22.0102 -75.5078 -51.1442
LeftHand  -0.244104 0.0205437 5.32207
RightShoulder  7.0825 15.0368 32.2267
RightArm  -32.3242 29.7797 27.0544
RightForeArm  7.69976 75.9404 58.8514
RightHand  -0.0429845 -10.2899 -0.295799
LeftUpLeg  -77.0411 37.5879 -38.5252
LeftLeg  21.487 -11.3694 -4.57296
LeftFoot  16.2211 -1.21753 4.55373
LeftToes  1.42787e-010 7.94111e-011 2.6399e-011
